<?xml version="1.0" standalone="no"?><!DOCTYPE svg PUBLIC "-//W3C//DTD SVG 1.1//EN" "http://www.w3.org/Graphics/SVG/1.1/DTD/svg11.dtd"><svg class="icon" width="200px" height="200.00px" viewBox="0 0 1024 1024" version="1.1" xmlns="http://www.w3.org/2000/svg"><path d="M456.533 827.733a384 384 0 1 1 0-768 384 384 0 0 1 0 768z m0-51.2a332.8 332.8 0 1 0 0-665.6 332.8 332.8 0 0 0 0 665.6zM302.933 418.133h307.2q25.6 0 25.6 25.6t-25.6 25.6h-307.2q-25.6 0-25.6-25.6t25.6-25.6zM482.133 290.133v307.2q0 25.6-25.6 25.6t-25.6-25.6v-307.2q0-25.6 25.6-25.6t25.6 25.6zM741.217 688.578L958.44 905.801q18.102 18.102 0 36.204-18.101 18.102-36.203 0L705.013 724.782q-18.102-18.102 0-36.204t36.204 0z" /></svg>