<?xml version="1.0" standalone="no"?><!DOCTYPE svg PUBLIC "-//W3C//DTD SVG 1.1//EN" "http://www.w3.org/Graphics/SVG/1.1/DTD/svg11.dtd"><svg class="icon" width="200px" height="200.00px" viewBox="0 0 1024 1024" version="1.1" xmlns="http://www.w3.org/2000/svg"><path d="M720.98 691.28L925.4 891.8a30.06 30.06 0 0 1 0.36 42.42 30.12 30.12 0 0 1-42.78 0l-205.5-201.6a360 360 0 1 1 43.5-41.4zM452 752a300 300 0 1 0 0-600 300 300 0 0 0 0 600zM300.2 453.98c0-16.56 13.02-30 30.12-30h242.16c16.62 0 30.12 13.92 30.12 30 0 16.56-13.02 30-30.12 30H330.32a30.36 30.36 0 0 1-30.12-30z" /></svg>